<?xml version="1.0" standalone="no"?>
<!DOCTYPE svg PUBLIC "-//W3C//DTD SVG 20010904//EN"
 "http://www.w3.org/TR/2001/REC-SVG-20010904/DTD/svg10.dtd">
<svg version="1.0" xmlns="http://www.w3.org/2000/svg"
 width="225.000000pt" height="225.000000pt" viewBox="0 0 225.000000 225.000000"
 preserveAspectRatio="xMidYMid meet">
<metadata>
Created by potrace 1.14, written by Peter Selinger 2001-2017
</metadata>
<g transform="translate(0.000000,225.000000) scale(0.100000,-0.100000)"
fill="#000000" stroke="none">
<path d="M0 1125 l0 -1125 1125 0 1125 0 0 1125 0 1125 -1125 0 -1125 0 0
-1125z m1283 1070 c404 -70 736 -378 844 -782 23 -85 26 -119 27 -253 1 -167
-12 -249 -61 -379 -147 -393 -518 -667 -936 -688 -529 -28 -990 328 -1097 847
-30 144 -24 352 13 485 113 401 435 696 842 770 97 18 266 18 368 0z"/>
<path d="M1070 2065 c-8 -21 -16 -25 -47 -25 -21 0 -56 7 -78 15 -22 8 -48 14
-57 15 -22 0 -50 -29 -44 -46 7 -19 -36 -29 -62 -15 -29 15 -39 14 -17 -3 17
-12 13 -17 -59 -52 -67 -32 -81 -36 -98 -25 -11 7 -22 10 -25 7 -3 -3 2 -8 11
-12 25 -10 19 -24 -11 -24 -19 0 -24 -3 -15 -9 11 -6 6 -14 -17 -32 l-31 -24
30 -20 c17 -11 30 -27 31 -35 0 -8 6 1 13 20 12 32 13 33 24 15 6 -11 13 -17
16 -14 3 3 -6 22 -20 42 -22 33 -23 38 -8 44 16 6 31 -7 54 -47 5 -8 12 -12
15 -8 4 4 -3 21 -16 39 -22 31 -22 32 -4 45 26 19 28 18 43 -16 15 -33 33 -38
52 -16 6 8 18 12 26 9 18 -6 17 -4 -1 40 -13 31 -13 36 1 41 22 9 21 9 34 -29
15 -46 31 -46 17 0 -7 26 -7 39 0 46 17 17 31 3 39 -36 3 -19 11 -35 16 -35 6
0 8 10 4 23 -19 69 -20 67 7 67 14 0 29 -4 32 -10 3 -5 1 -10 -5 -10 -6 0 -8
-4 -5 -10 13 -21 32 -10 27 15 -3 20 0 25 17 25 17 0 21 -6 21 -35 0 -19 5
-35 10 -35 6 0 8 15 4 40 l-7 40 44 -1 c38 0 41 -2 21 -10 -29 -11 -25 -43 6
-47 12 -2 20 -8 17 -13 -4 -5 -1 -9 4 -9 6 0 11 11 11 25 0 15 6 25 14 25 10
0 12 -7 9 -22 -5 -18 -3 -20 7 -12 17 16 8 49 -13 48 -18 -2 -23 11 -8 20 5 3
23 3 41 0 30 -7 32 -9 28 -45 -2 -22 0 -39 4 -39 5 0 8 12 8 26 0 14 4 33 10
43 15 29 -29 71 -75 71 -29 0 -37 -5 -45 -25z m88 3 c22 -22 13 -28 -30 -22
-50 8 -52 9 -43 23 9 15 58 14 73 -1z m-208 -27 c0 -8 -47 -21 -76 -21 -8 0
-14 7 -14 15 0 11 12 15 45 15 25 0 45 -4 45 -9z m120 -46 c0 -8 -4 -15 -10
-15 -5 0 -10 7 -10 15 0 8 5 15 10 15 6 0 10 -7 10 -15z m-314 -60 c7 -27 -12
-59 -28 -49 -5 3 -5 11 2 19 9 11 6 12 -12 9 -20 -5 -21 -4 -5 6 9 6 17 18 17
25 0 25 19 17 26 -10z m-166 -95 c0 -21 -24 -28 -35 -10 -8 14 3 30 21 30 8 0
14 -9 14 -20z"/>
<path d="M1303 2013 c9 -2 17 -11 17 -20 0 -10 -6 -13 -16 -9 -13 5 -15 1 -9
-21 3 -16 11 -32 17 -38 7 -7 9 -3 5 12 -6 26 4 36 28 27 11 -5 15 -15 12 -30
-7 -37 10 -28 23 11 6 19 15 35 20 35 16 0 60 -23 60 -31 0 -14 -18 -19 -23
-7 -8 25 -17 1 -11 -30 7 -34 23 -45 20 -14 -2 28 27 20 43 -12 7 -16 22 -31
33 -34 11 -3 17 -10 14 -18 -10 -26 13 -14 31 16 19 33 21 34 42 21 12 -8 10
-16 -13 -45 -15 -20 -23 -36 -17 -36 5 0 21 15 35 32 l25 33 35 -34 c19 -19
33 -38 30 -43 -4 -5 -16 0 -28 11 -12 12 -26 18 -29 14 -12 -11 -8 -23 7 -23
22 0 28 -17 16 -40 -15 -28 -3 -25 35 9 l33 29 -31 30 c-68 63 -163 126 -143
93 10 -15 -5 -41 -23 -41 -29 0 -32 11 -8 31 21 17 21 19 5 35 -14 14 -21 15
-30 6 -6 -6 -8 -15 -4 -19 4 -4 11 -1 16 7 8 13 10 12 10 -2 0 -21 -30 -24
-48 -6 -18 18 -15 41 4 34 8 -3 13 -2 10 3 -9 14 -132 60 -173 65 -21 2 -30 1
-20 -1z m62 -24 c10 -15 -1 -23 -20 -15 -9 3 -13 10 -10 16 8 13 22 13 30 -1z"/>
<path d="M1023 1792 l48 -48 -48 -27 c-26 -14 -133 -76 -238 -137 l-190 -111
-19 62 -18 61 -55 -97 c-30 -53 -52 -99 -50 -102 5 -4 69 11 103 24 12 4 14
-34 14 -266 0 -149 -1 -271 -3 -271 -2 0 -27 7 -56 16 -29 8 -55 13 -57 11 -7
-6 97 -187 107 -187 4 0 10 17 14 38 12 74 5 76 247 -62 123 -71 227 -132 233
-137 5 -6 -5 -24 -28 -47 -20 -21 -37 -41 -37 -45 0 -4 50 -7 110 -7 61 0 110
3 110 7 0 4 -18 26 -40 48 l-41 42 231 132 c127 72 234 129 239 126 5 -3 12
-22 16 -43 12 -71 19 -68 78 34 31 54 55 99 54 101 -2 1 -25 -4 -52 -12 -26
-8 -54 -15 -61 -15 -11 0 -13 54 -11 270 1 148 5 270 8 270 3 0 29 -7 58 -16
29 -8 55 -14 57 -12 2 2 -22 48 -53 103 l-57 99 -17 -59 c-9 -33 -21 -59 -26
-58 -9 2 -205 113 -370 210 -51 30 -93 57 -93 60 0 3 18 21 40 40 22 19 40 39
40 44 0 5 -52 9 -117 9 l-117 0 47 -48z m313 -220 l239 -138 3 -285 2 -284
-238 -138 c-132 -75 -242 -137 -246 -137 -4 0 -76 40 -159 88 -84 49 -191 111
-239 138 l-88 49 3 284 2 283 240 139 c132 76 240 139 241 139 0 0 108 -62
240 -138z"/>
<path d="M994 1537 c-40 -45 -71 -84 -60 -75 5 4 16 2 25 -4 13 -10 14 -10 4
1 -9 11 -5 22 20 53 17 21 37 36 43 34 8 -3 11 1 7 10 -7 18 -5 19 -39 -19z"/>
<path d="M840 1510 c-54 -40 -110 -101 -136 -152 -17 -33 -12 -35 25 -9 15 11
46 27 70 37 35 14 47 25 62 62 11 24 29 57 40 73 29 41 6 37 -61 -11z"/>
<path d="M1319 1478 c35 -71 38 -74 109 -109 39 -19 72 -33 72 -31 0 13 -63
101 -92 129 -34 32 -106 83 -118 83 -3 0 10 -33 29 -72z"/>
<path d="M1206 1527 c3 -10 9 -15 12 -12 3 3 0 11 -7 18 -10 9 -11 8 -5 -6z"/>
<path d="M1219 1493 c-13 -16 -13 -17 4 -4 9 7 17 10 18 5 0 -5 2 -17 4 -26 4
-20 -14 -24 -33 -8 -7 5 -6 3 2 -6 16 -18 46 -12 46 9 0 7 -6 21 -13 31 -12
17 -14 17 -28 -1z"/>
<path d="M997 1493 c-4 -3 -7 -13 -7 -22 1 -13 3 -13 11 2 11 19 8 33 -4 20z"/>
<path d="M925 1440 c-3 -5 -2 -10 4 -10 5 0 13 5 16 10 3 6 2 10 -4 10 -5 0
-13 -4 -16 -10z"/>
<path d="M1208 1373 c7 -3 16 -2 19 1 4 3 -2 6 -13 5 -11 0 -14 -3 -6 -6z"/>
<path d="M1280 1350 c0 -5 5 -10 11 -10 5 0 7 5 4 10 -3 6 -8 10 -11 10 -2 0
-4 -4 -4 -10z"/>
<path d="M775 1315 c-45 -27 -115 -100 -115 -121 0 -11 18 -14 75 -14 l75 0 0
43 c0 23 4 59 9 80 10 43 9 43 -44 12z"/>
<path d="M1373 1326 c4 -9 9 -45 13 -81 l7 -65 73 0 c41 0 74 2 74 5 0 4 -6
18 -14 33 -20 37 -63 76 -115 102 -36 18 -43 19 -38 6z"/>
<path d="M881 1304 c0 -11 3 -14 6 -6 3 7 2 16 -1 19 -3 4 -6 -2 -5 -13z"/>
<path d="M1132 1285 c0 -16 2 -22 5 -12 2 9 2 23 0 30 -3 6 -5 -1 -5 -18z"/>
<path d="M1306 1287 c3 -10 9 -15 12 -12 3 3 0 11 -7 18 -10 9 -11 8 -5 -6z"/>
<path d="M871 1194 c0 -11 3 -14 6 -6 3 7 2 16 -1 19 -3 4 -6 -2 -5 -13z"/>
<path d="M1141 1194 c0 -11 3 -14 6 -6 3 7 2 16 -1 19 -3 4 -6 -2 -5 -13z"/>
<path d="M983 1183 c15 -2 37 -2 50 0 12 2 0 4 -28 4 -27 0 -38 -2 -22 -4z"/>
<path d="M660 1111 c0 -21 50 -79 94 -108 62 -42 70 -42 62 5 -3 20 -6 54 -6
75 l0 37 -75 0 c-41 0 -75 -4 -75 -9z"/>
<path d="M865 1110 c-7 -12 2 -12 30 0 19 8 19 9 -2 9 -12 1 -25 -3 -28 -9z"/>
<path d="M963 1113 c15 -2 39 -2 55 0 15 2 2 4 -28 4 -30 0 -43 -2 -27 -4z"/>
<path d="M1203 1113 c15 -2 39 -2 55 0 15 2 2 4 -28 4 -30 0 -43 -2 -27 -4z"/>
<path d="M1386 1055 c-4 -36 -9 -72 -13 -81 -5 -13 1 -13 34 5 54 27 101 67
118 102 8 15 15 30 15 34 0 3 -33 5 -74 5 l-73 0 -7 -65z"/>
<path d="M1301 1073 c-1 -6 -4 -20 -7 -30 -5 -15 -4 -15 5 -3 9 13 11 13 11 0
1 -12 3 -11 11 3 6 10 8 23 5 30 -2 7 -5 3 -6 -8 l-1 -20 -9 20 c-5 11 -9 15
-9 8z"/>
<path d="M710 932 c12 -22 41 -59 64 -82 39 -41 121 -100 138 -100 4 0 -6 21
-22 46 -16 25 -32 58 -35 73 -6 25 -18 32 -159 99 -5 3 1 -13 14 -36z"/>
<path d="M1190 960 c0 -13 18 -22 24 -11 3 5 -1 11 -9 15 -8 3 -15 1 -15 -4z"/>
<path d="M1425 931 c-67 -34 -72 -39 -106 -108 -20 -40 -33 -73 -28 -73 22 0
137 102 173 152 22 32 38 59 35 61 -2 2 -36 -13 -74 -32z"/>
<path d="M926 940 c6 -6 21 -6 39 -1 30 9 30 9 -9 10 -26 1 -37 -2 -30 -9z"/>
<path d="M950 861 c0 -6 4 -13 10 -16 6 -3 7 1 4 9 -7 18 -14 21 -14 7z"/>
<path d="M1178 853 c7 -3 16 -2 19 1 4 3 -2 6 -13 5 -11 0 -14 -3 -6 -6z"/>
<path d="M1130 821 c0 -5 7 -11 14 -14 10 -4 13 -1 9 9 -6 15 -23 19 -23 5z"/>
<path d="M1195 801 c3 -23 22 -24 28 -2 3 14 0 19 -13 18 -10 0 -17 -8 -15
-16z"/>
<path d="M996 802 c-2 -4 4 -8 14 -8 10 0 16 4 14 8 -3 4 -9 8 -14 8 -5 0 -11
-4 -14 -8z"/>
<path d="M999 758 c21 -24 41 -29 41 -11 0 4 -3 3 -7 0 -3 -4 -18 3 -32 15
l-26 23 24 -27z"/>
<path d="M1131 744 c0 -11 3 -14 6 -6 3 7 2 16 -1 19 -3 4 -6 -2 -5 -13z"/>
<path d="M1169 743 c-13 -17 -13 -17 6 -3 11 8 22 16 24 17 2 2 0 3 -6 3 -6 0
-17 -8 -24 -17z"/>
<path d="M411 1723 c-29 -34 -47 -47 -67 -48 -36 0 -56 -31 -31 -49 17 -13 17
-15 -2 -47 -43 -74 -98 -241 -78 -238 27 3 36 -2 30 -17 -3 -8 -11 -13 -19
-10 -15 6 -40 -21 -30 -31 4 -4 11 -1 16 7 6 10 12 11 22 2 9 -7 18 -8 28 -1
11 8 12 12 3 15 -20 9 -3 35 18 29 11 -4 19 -2 19 3 0 6 -18 13 -40 17 -41 7
-45 11 -32 32 6 10 17 10 42 3 42 -12 40 -12 40 0 0 5 -16 12 -35 16 -38 7
-43 22 -21 63 9 17 15 20 21 11 4 -7 2 -16 -6 -21 -11 -7 -9 -9 6 -9 30 0 65
11 65 21 0 5 -6 6 -14 3 -8 -3 -24 4 -35 15 l-21 21 22 45 c21 42 49 66 33 28
-14 -33 -11 -57 9 -61 10 -2 23 2 30 8 8 9 6 11 -11 6 -28 -9 -38 8 -20 34 12
18 15 18 35 4 12 -8 22 -10 22 -5 0 6 -12 18 -27 28 -16 9 -30 18 -32 20 -2 1
2 9 9 17 10 14 16 12 45 -10 18 -14 36 -21 38 -17 3 5 -10 19 -29 32 -28 19
-32 26 -23 42 11 22 44 26 36 5 -3 -8 -1 -17 6 -19 18 -7 47 12 47 30 0 13 3
13 15 3 25 -21 17 0 -14 36 l-30 33 -40 -46z m54 -13 c0 -13 -5 -25 -11 -27
-13 -4 -26 35 -18 49 10 16 29 2 29 -22z m-115 -66 c-7 -7 -18 -10 -26 -7 -11
4 -12 9 -4 19 7 7 18 10 26 7 11 -4 12 -9 4 -19z"/>
<path d="M1812 1708 c-7 -7 -12 -9 -12 -5 0 4 -13 -8 -30 -26 -39 -45 -38 -54
3 -23 19 14 37 23 40 19 4 -3 7 1 7 10 0 26 29 20 41 -7 15 -31 3 -96 -16 -96
-8 0 -15 7 -15 15 0 8 5 15 10 15 6 0 10 9 10 20 0 12 -7 20 -17 20 -14 0 -15
-2 -4 -9 9 -6 10 -11 2 -15 -6 -4 -15 -5 -20 -2 -5 3 -12 -1 -15 -10 -8 -22
-9 -21 16 -27 21 -6 21 -7 5 -25 -26 -29 -20 -34 16 -12 17 11 35 20 38 20 11
0 51 -98 46 -111 -3 -9 -11 1 -21 24 -17 39 -49 50 -60 21 -12 -31 -5 -39 13
-15 13 17 20 20 26 11 4 -7 2 -16 -6 -21 -11 -7 -10 -9 4 -9 9 0 17 -7 17 -15
0 -8 -6 -15 -14 -15 -8 0 -18 -5 -22 -11 -7 -12 -3 -11 64 7 17 5 22 2 22 -14
0 -15 -9 -21 -35 -26 -19 -4 -35 -12 -35 -18 0 -5 7 -7 16 -4 25 10 64 19 64
15 0 -2 4 -19 9 -37 6 -20 6 -32 0 -32 -5 0 -9 7 -9 15 0 8 -4 15 -9 15 -14 0
-33 -28 -26 -40 3 -5 1 -10 -4 -10 -6 0 -11 9 -11 20 0 11 -4 20 -10 20 -5 0
-10 -6 -10 -14 0 -8 -2 -21 -5 -28 -4 -10 3 -13 22 -12 20 0 29 7 34 25 5 16
7 18 8 7 1 -10 8 -18 16 -18 8 0 15 -6 16 -12 0 -7 5 -2 10 11 6 15 14 21 25
17 10 -4 14 -1 11 6 -2 7 -13 12 -23 10 -16 -2 -22 8 -33 55 -7 32 -28 91 -47
132 -22 48 -34 89 -34 117 0 31 -6 50 -20 64 -23 23 -31 25 -48 8z"/>
<path d="M224 1165 c-8 -21 2 -45 19 -45 8 0 20 7 27 15 10 12 10 18 0 30 -7
8 -19 15 -27 15 -7 0 -16 -7 -19 -15z"/>
<path d="M1916 1164 c-9 -22 17 -49 39 -40 10 3 15 15 13 28 -4 29 -42 37 -52
12z"/>
<path d="M252 1029 c-45 -13 -31 -29 15 -18 21 5 41 9 46 9 4 0 7 5 7 10 0 12
-23 12 -68 -1z"/>
<path d="M1870 1030 c0 -5 5 -10 10 -10 6 0 10 5 10 10 0 6 -4 10 -10 10 -5 0
-10 -4 -10 -10z"/>
<path d="M1900 1032 c0 -5 7 -13 16 -16 24 -9 54 -7 54 4 0 6 -9 10 -19 10
-11 0 -26 3 -35 6 -9 3 -16 2 -16 -4z"/>
<path d="M243 983 c-28 -11 -11 -24 22 -17 23 4 35 2 35 -5 0 -6 -13 -14 -30
-17 -16 -4 -30 -10 -30 -15 0 -12 37 -11 61 1 15 8 17 15 9 29 -5 10 -6 21 -3
25 7 7 -46 7 -64 -1z"/>
<path d="M1886 968 c-3 -13 -1 -27 4 -32 7 -7 10 -2 10 12 0 12 5 22 10 22 6
0 10 -12 10 -26 0 -34 31 -29 41 8 8 29 -3 38 -46 38 -15 0 -25 -7 -29 -22z
m64 -13 c0 -8 -4 -15 -10 -15 -5 0 -10 7 -10 15 0 8 5 15 10 15 6 0 10 -7 10
-15z"/>
<path d="M1845 920 c-7 -11 87 -42 97 -32 4 4 -14 15 -42 24 -27 9 -52 12 -55
8z"/>
<path d="M267 895 c-12 -12 -13 -20 -4 -39 11 -23 12 -23 54 -9 48 17 65 33
34 33 -12 0 -21 7 -21 15 0 20 -44 20 -63 0z m51 -17 c-5 -15 -48 -24 -48 -10
0 14 12 22 33 22 10 0 17 -5 15 -12z"/>
<path d="M1830 880 c0 -5 5 -10 11 -10 5 0 7 5 4 10 -3 6 -8 10 -11 10 -2 0
-4 -4 -4 -10z"/>
<path d="M1860 869 c0 -9 42 -29 61 -29 22 0 6 18 -26 27 -21 7 -35 7 -35 2z"/>
<path d="M360 840 c0 -5 5 -10 10 -10 6 0 10 5 10 10 0 6 -4 10 -10 10 -5 0
-10 -4 -10 -10z"/>
<path d="M310 823 c-19 -8 -30 -17 -24 -19 16 -6 64 13 64 26 0 12 3 13 -40
-7z"/>
<path d="M1840 821 c0 -14 -5 -18 -20 -14 -37 10 -20 -12 23 -29 49 -21 57
-22 57 -8 0 5 -11 12 -25 16 -14 3 -25 12 -25 20 0 17 5 17 31 4 11 -6 24 -8
31 -4 7 4 2 12 -13 20 -35 19 -59 17 -59 -5z"/>
<path d="M350 791 c0 -5 6 -11 13 -14 6 -2 9 -8 5 -12 -5 -5 -17 0 -28 10 -29
26 -49 6 -30 -30 16 -29 30 -31 58 -7 16 13 18 22 12 40 -9 22 -30 31 -30 13z
m-8 -36 c0 -5 -5 -11 -11 -13 -6 -2 -11 4 -11 13 0 9 5 15 11 13 6 -2 11 -8
11 -13z"/>
<path d="M1774 755 c-21 -32 -15 -45 31 -69 40 -22 48 -17 61 33 7 23 -11 45
-28 35 -5 -3 -11 2 -14 10 -9 24 -31 19 -50 -9z m36 -15 c0 -11 -7 -20 -15
-20 -15 0 -21 21 -8 33 12 13 23 7 23 -13z m32 -32 c-15 -15 -26 -4 -18 18 5
13 9 15 18 6 9 -9 9 -15 0 -24z"/>
<path d="M368 714 c-16 -8 -28 -19 -28 -24 0 -14 12 -12 37 5 15 10 24 12 28
4 7 -10 -21 -38 -38 -39 -5 0 -5 -5 -2 -10 8 -12 65 19 65 35 -1 11 -24 45
-31 45 -2 -1 -16 -8 -31 -16z"/>
<path d="M1748 648 c17 -17 15 -30 -5 -27 -35 3 -53 -1 -53 -13 0 -6 -7 -19
-15 -28 -14 -15 -12 -20 18 -53 l33 -37 22 20 c36 34 24 74 -14 45 -23 -17
-43 -20 -26 -3 15 15 16 48 0 48 -6 0 -8 3 -5 7 12 11 88 -19 83 -34 -3 -7 -1
-13 4 -13 6 0 10 7 10 15 0 19 -42 85 -54 85 -6 0 -5 -5 2 -12z m-38 -79 c0
-5 -7 -9 -15 -9 -15 0 -20 12 -9 23 8 8 24 -1 24 -14z m40 -44 c-7 -8 -17 -15
-23 -15 -5 0 -2 9 8 20 21 23 35 19 15 -5z"/>
<path d="M452 622 c-47 -40 -40 -60 8 -22 37 29 51 50 33 50 -5 0 -23 -13 -41
-28z"/>
<path d="M473 581 c-32 -27 -29 -47 3 -22 35 27 52 16 23 -15 -30 -32 -15 -44
17 -13 24 25 24 25 6 47 -23 26 -21 26 -49 3z"/>
<path d="M535 530 c-4 -6 -1 -18 6 -26 6 -8 9 -17 5 -21 -3 -4 -13 2 -21 13
-13 17 -14 17 -15 2 0 -23 38 -44 53 -29 9 9 8 17 -1 32 -17 27 -5 40 14 15 8
-11 14 -15 14 -10 0 26 -42 44 -55 24z"/>
<path d="M1617 533 c-15 -14 -6 -53 14 -63 37 -20 67 28 37 58 -13 13 -41 16
-51 5z m37 -19 c20 -19 21 -34 2 -34 -18 0 -39 27 -31 40 8 13 11 13 29 -6z"/>
<path d="M1559 503 c6 -10 21 -31 35 -48 33 -40 34 -12 0 32 -27 35 -52 47
-35 16z"/>
<path d="M615 500 c-11 -5 -16 -9 -11 -9 4 -1 1 -13 -9 -27 -16 -25 -16 -27 0
-43 14 -13 17 -13 13 -1 -7 19 9 50 25 50 7 0 13 9 13 20 0 22 -2 23 -31 10z"/>
<path d="M647 448 c-31 -48 -26 -67 7 -25 25 31 40 26 24 -8 -12 -26 -4 -60
12 -50 6 4 8 10 5 15 -8 14 6 40 22 40 11 0 13 -5 8 -17 -19 -45 -17 -53 11
-63 28 -11 43 -1 44 28 0 6 7 12 15 12 11 0 12 -6 6 -22 -10 -29 -4 -48 17
-48 11 0 13 3 5 11 -14 14 -5 49 12 49 8 0 11 8 8 20 -6 21 -18 26 -27 11 -3
-5 -14 -7 -24 -4 -13 3 -22 -4 -31 -23 -8 -19 -15 -24 -22 -17 -8 8 -7 18 1
33 10 19 10 24 -4 32 -9 5 -16 16 -16 24 0 11 -6 13 -19 9 -11 -3 -22 -1 -26
5 -3 5 -1 10 4 10 6 0 11 5 11 10 0 21 -16 9 -43 -32z"/>
<path d="M1523 463 c-18 -7 -16 -48 2 -63 21 -17 55 -3 55 24 0 36 -24 53 -57
39z m43 -51 c-12 -11 -36 9 -36 30 l1 23 20 -24 c11 -13 17 -26 15 -29z"/>
<path d="M1447 416 c-17 -13 -17 -16 -2 -45 21 -41 29 -39 21 4 -8 41 6 46 22
9 7 -14 17 -22 22 -19 13 8 -16 65 -33 65 -6 0 -20 -7 -30 -14z"/>
<path d="M1340 406 c0 -11 40 -96 45 -96 3 0 3 16 -1 35 -7 41 7 47 24 10 17
-38 35 -31 19 8 -9 21 -20 32 -34 32 -12 0 -25 3 -29 8 -8 8 -24 10 -24 3z"/>
<path d="M851 348 c-5 -13 -6 -28 -4 -35 7 -18 43 -27 56 -14 8 8 4 11 -16 11
-15 0 -27 5 -27 11 0 7 11 9 30 6 32 -7 41 8 18 31 -19 19 -48 14 -57 -10z
m49 2 c0 -5 -7 -10 -16 -10 -8 0 -12 5 -9 10 3 6 10 10 16 10 5 0 9 -4 9 -10z"/>
<path d="M1053 355 c-11 -19 -4 -85 8 -85 5 0 9 14 9 30 0 17 5 30 11 30 8 0
8 4 0 14 -9 11 -9 15 1 19 8 4 7 6 -4 6 -9 1 -21 -6 -25 -14z"/>
<path d="M1133 356 c10 -8 21 -30 24 -50 8 -50 27 -46 20 4 -4 31 -1 42 11 50
13 7 6 9 -28 9 -40 0 -43 -1 -27 -13z"/>
<path d="M1292 358 c-16 -16 -15 -43 3 -58 20 -16 49 -9 54 15 3 17 1 18 -13
6 -12 -10 -20 -11 -28 -3 -15 15 -2 43 17 36 8 -3 15 -1 15 5 0 15 -33 14 -48
-1z"/>
<path d="M976 334 c-27 -27 -12 -64 26 -64 15 0 38 27 38 44 0 8 -31 36 -40
36 -5 0 -16 -7 -24 -16z m34 -24 c0 -28 -13 -40 -24 -22 -7 12 5 52 15 52 5 0
9 -13 9 -30z"/>
<path d="M1207 344 c-14 -14 -7 -53 12 -63 13 -8 23 -6 37 5 18 14 18 15 -3 9
-12 -3 -24 -2 -27 4 -3 5 6 12 20 15 14 4 24 12 21 19 -4 14 -49 22 -60 11z
m43 -14 c0 -5 -7 -10 -15 -10 -8 0 -15 5 -15 10 0 6 7 10 15 10 8 0 15 -4 15
-10z"/>
</g>
</svg>
